<svg width="228" height="65" viewBox="0 0 228 65" fill="none" xmlns="http://www.w3.org/2000/svg">
<path d="M0 63.2249V1.39147C4.81531 0.927648 9.48558 0.695736 14.0108 0.695736C20.1025 0.695736 24.9758 2.1162 28.6308 4.95711C32.3438 7.79803 34.2003 12.0884 34.2003 17.8282C34.2003 23.51 31.6766 28.2062 26.6292 31.9168C21.6399 35.5694 15.6643 37.3957 8.70236 37.3957C8.41229 37.3957 8.0932 37.3957 7.7451 37.3957V34.5258C7.97717 34.5258 8.18022 34.5258 8.35427 34.5258C14.0978 34.5258 19.0872 33.0184 23.3223 30.0035C27.5575 26.9887 29.6751 23.0752 29.6751 18.263C29.6751 13.3929 28.1957 9.88523 25.2369 7.74005C22.2781 5.53689 18.304 4.43531 13.3146 4.43531C10.7039 4.43531 7.65808 4.55127 4.17713 4.78318V63.2249H0ZM50.5656 63.2249V1.30451C56.0771 0.898661 60.6893 0.695736 64.4023 0.695736C70.3199 0.695736 75.1933 2.23215 79.0223 5.30498C82.8513 8.31983 84.7659 12.6102 84.7659 18.1761C84.7659 21.9446 83.6636 25.4523 81.459 28.699C79.2544 31.9458 76.7887 34.5258 74.062 36.4391C76.2085 39.396 78.8483 42.9326 81.9811 47.049C85.172 51.1075 87.2315 53.6585 88.1598 54.7021C91.6988 58.4707 95.7018 60.6158 100.169 61.1376L100.082 63.9206C96.5431 63.8626 93.6713 63.3408 91.4667 62.3552C89.2621 61.3116 87.1445 59.7462 85.114 57.659C83.1414 55.5718 78.1811 49.0783 70.2329 38.1784C64.5474 38.1784 59.384 38.0045 54.7427 37.6566V63.2249H50.5656ZM67.7092 34.6997C70.2619 34.6997 72.9887 33.0184 75.8895 29.6557C78.7902 26.293 80.2406 22.4084 80.2406 18.0021C80.2406 13.5378 78.7322 10.1751 75.7154 7.91398C72.7566 5.59487 68.8115 4.43531 63.8802 4.43531C61.2695 4.43531 58.2237 4.55127 54.7427 4.78318V34.2649C59.384 34.5548 63.7061 34.6997 67.7092 34.6997ZM136.409 64.2685C127.358 64.2685 119.584 61.1956 113.086 55.05C106.589 48.8463 103.34 41.2223 103.34 32.1777C103.34 23.0752 106.183 15.4511 111.868 9.30545C117.554 3.10182 124.835 0 133.711 0C140.673 0 147.722 1.15956 154.858 3.47868L153.726 6.95735C146.765 4.87015 140.093 3.82654 133.711 3.82654C126.111 3.82654 119.903 6.5515 115.088 12.0014C110.273 17.4513 107.865 24.1188 107.865 32.0038C107.865 39.8888 110.65 46.6142 116.219 52.1801C121.847 57.688 128.577 60.4419 136.409 60.4419C143.255 60.4419 149.172 59.3983 154.162 57.3111L155.467 60.268C153.262 61.5435 150.362 62.5291 146.765 63.2249C143.226 63.9206 139.774 64.2685 136.409 64.2685ZM175.438 54.963C169.695 48.7594 166.823 41.1353 166.823 32.0907C166.823 23.0462 169.695 15.4511 175.438 9.30545C181.24 3.10182 188.55 0 197.368 0C206.186 0 213.496 3.10182 219.298 9.30545C225.099 15.4511 228 23.0462 228 32.0907C228 41.1353 225.099 48.7594 219.298 54.963C213.496 61.1666 206.186 64.2685 197.368 64.2685C188.55 64.2685 181.24 61.1666 175.438 54.963ZM178.571 12.0014C173.756 17.3934 171.348 24.0898 171.348 32.0907C171.348 40.0917 173.756 46.8171 178.571 52.267C183.444 57.717 189.71 60.4419 197.368 60.4419C205.084 60.4419 211.349 57.717 216.165 52.267C221.038 46.8171 223.475 40.0917 223.475 32.0907C223.475 24.0898 221.038 17.3934 216.165 12.0014C211.349 6.5515 205.084 3.82654 197.368 3.82654C189.652 3.82654 183.386 6.5515 178.571 12.0014Z" fill="black"/>
</svg>
